<?xml version="1.0" standalone="no"?>
<!DOCTYPE svg PUBLIC "-//W3C//DTD SVG 20010904//EN"
 "http://www.w3.org/TR/2001/REC-SVG-20010904/DTD/svg10.dtd">
<svg version="1.0" xmlns="http://www.w3.org/2000/svg"
 width="500.000000pt" height="500.000000pt" viewBox="0 0 500.000000 500.000000"
 preserveAspectRatio="xMidYMid meet">

<g transform="translate(0.000000,500.000000) scale(0.100000,-0.100000)"
fill="#000000" stroke="none">
<path d="M2483 4033 c15 -2 37 -2 50 0 12 2 0 4 -28 4 -27 0 -38 -2 -22 -4z"/>
<path d="M2359 3999 c-150 -81 -288 -222 -359 -364 -63 -128 -92 -273 -62
-308 15 -16 14 -17 -1 -11 -10 3 -17 1 -17 -5 0 -6 23 -22 50 -36 28 -14 48
-30 45 -35 -3 -6 2 -10 11 -10 10 0 15 -3 11 -6 -8 -9 -48 6 -42 16 3 4 -9 13
-27 19 -45 16 -53 14 -27 -9 l24 -19 -24 -1 c-19 0 -21 -3 -11 -15 6 -8 9 -18
6 -23 -4 -7 6 -69 20 -113 3 -12 -13 -27 -63 -54 -89 -49 -186 -127 -236 -189
-41 -53 -97 -160 -97 -186 0 -8 11 10 23 40 53 129 185 263 334 339 53 27 56
26 51 -4 -3 -14 -1 -23 6 -22 6 1 11 -5 11 -14 0 -9 -36 -43 -80 -76 -89 -66
-154 -135 -202 -215 -34 -56 -64 -153 -62 -203 0 -16 7 3 14 43 18 101 54 168
137 257 68 73 183 165 207 165 27 0 6 -32 -48 -74 -90 -70 -178 -172 -217
-252 -19 -39 -34 -80 -33 -90 0 -10 10 8 22 41 13 33 38 83 57 110 42 60 140
160 198 199 36 25 45 27 53 15 6 -9 3 -18 -9 -27 -41 -31 -167 -161 -195 -202
-36 -51 -77 -146 -76 -175 0 -11 8 6 18 37 26 81 65 143 135 217 88 92 136
128 146 110 6 -9 -16 -39 -79 -104 -91 -94 -155 -199 -166 -275 -4 -24 0 -18
13 21 11 31 33 82 51 113 36 62 178 219 194 213 21 -7 18 -26 -8 -49 -70 -60
-195 -260 -195 -308 0 -8 11 10 24 42 37 89 73 145 142 216 49 51 66 64 73 53
6 -9 -10 -37 -57 -94 -67 -84 -117 -177 -127 -237 -4 -21 3 -9 17 30 29 80 63
137 125 212 77 91 103 72 32 -23 -48 -64 -94 -144 -103 -179 -4 -14 8 4 27 40
35 69 114 180 128 180 23 0 15 -26 -31 -97 -27 -43 -50 -82 -50 -88 0 -5 13
10 28 35 47 78 77 120 85 120 21 0 14 -32 -18 -85 -42 -70 -74 -152 -82 -211
-3 -24 -9 -44 -14 -44 -4 0 -14 -3 -22 -6 -11 -4 -17 2 -20 18 -4 21 -4 20 -6
-4 -1 -21 -6 -28 -21 -28 -11 0 -20 6 -20 13 0 8 -3 7 -10 -3 -5 -9 -26 -16
-50 -17 -44 -1 -46 2 -54 87 -2 25 -2 10 -1 -32 3 -76 3 -77 -17 -59 -10 10
-23 31 -28 47 -9 26 -9 25 -5 -8 5 -30 3 -37 -9 -32 -8 3 -22 22 -31 42 -15
36 -15 16 0 -22 16 -38 -19 -10 -43 35 -22 40 -25 35 -7 -16 5 -14 -1 -11 -19
10 -14 16 -28 43 -32 60 -4 16 -9 25 -11 18 -2 -6 3 -27 11 -47 8 -20 13 -36
11 -36 -12 0 -59 85 -66 118 l-8 37 3 -35 c2 -19 7 -44 11 -54 17 -40 -17 -4
-36 38 -10 22 -19 34 -19 25 0 -8 13 -35 29 -60 49 -77 191 -157 358 -199 140
-36 347 -25 466 25 21 8 40 15 43 14 8 -1 24 23 24 36 0 6 -4 4 -9 -4 -6 -9
-10 -4 -13 18 -2 17 -1 31 4 31 4 0 8 22 8 49 0 28 4 52 8 55 5 3 7 -26 5 -63
-2 -49 1 -72 11 -80 11 -10 14 1 18 59 4 76 22 114 25 52 1 -30 -1 -33 -8 -17
-7 15 -8 12 -4 -14 3 -18 5 -41 6 -50 0 -10 4 -6 10 9 8 20 12 22 19 10 5 -8
12 -11 16 -7 4 3 2 12 -3 19 -5 7 -13 22 -17 32 -5 16 -4 17 9 6 8 -7 15 -19
15 -26 0 -25 28 -15 72 26 24 22 46 40 50 40 3 0 37 -18 76 -40 38 -22 73 -40
78 -40 5 0 -26 20 -68 45 -55 32 -76 49 -72 60 8 20 11 20 86 -20 67 -36 148
-68 155 -62 2 2 -23 14 -54 25 -32 12 -82 36 -111 53 -44 25 -51 33 -42 44 10
12 20 10 62 -11 27 -14 52 -23 54 -21 2 2 -14 12 -36 22 -48 22 -67 42 -53 56
6 6 29 0 67 -17 31 -14 59 -24 62 -22 2 3 -21 15 -52 27 -39 17 -54 28 -52 40
2 9 12 15 23 13 15 -2 17 -1 6 7 -8 5 -11 16 -8 25 5 14 10 14 52 -1 25 -8 48
-13 51 -11 2 3 -16 11 -41 18 -41 12 -58 31 -37 44 5 3 30 -1 57 -9 26 -8 55
-15 64 -14 9 0 -9 7 -39 16 -65 17 -76 26 -57 44 7 8 12 20 9 27 -2 8 6 16 18
19 15 4 18 8 10 13 -22 14 0 30 43 32 l42 1 -37 4 c-30 3 -38 9 -38 24 0 10 4
19 8 19 10 0 7 54 -3 71 -5 8 -4 10 3 5 7 -4 12 -3 12 3 0 5 21 12 48 14 l47
3 -49 2 c-43 2 -48 4 -43 22 3 11 1 23 -4 26 -16 9 -10 24 14 34 l22 9 -22 0
c-13 1 -23 7 -23 14 0 8 -4 7 -11 -3 -9 -13 -10 -13 -6 0 5 21 36 25 72 7 16
-8 44 -20 60 -27 28 -11 28 -13 10 -21 -16 -7 -15 -8 10 -7 17 1 41 -5 55 -12
l25 -14 -25 -8 c-23 -7 -22 -7 5 -4 31 4 65 -8 65 -24 0 -4 -14 -11 -31 -15
-17 -4 -28 -9 -25 -12 2 -3 21 0 41 7 28 9 39 9 50 0 22 -18 18 -29 -10 -36
-14 -4 -24 -9 -21 -12 3 -2 19 1 36 8 24 10 33 10 45 0 20 -17 19 -25 -7 -39
-17 -9 -18 -10 -3 -5 80 26 100 -7 24 -41 -21 -10 -37 -20 -35 -22 2 -3 22 5
44 16 30 15 42 17 51 8 10 -9 12 -9 9 3 -1 9 0 17 5 18 4 1 7 0 7 -3 0 -3 0
-9 0 -15 0 -15 -42 -51 -85 -71 -22 -11 -29 -16 -15 -13 14 3 41 17 62 30 29
18 38 21 47 10 12 -14 -23 -53 -74 -79 -16 -9 -25 -16 -19 -17 7 0 35 15 62
34 39 26 52 30 56 20 8 -22 -57 -80 -116 -103 -29 -11 -46 -20 -38 -20 27 -1
104 40 138 72 29 28 32 29 32 10 0 -32 -44 -78 -102 -107 -29 -14 -46 -26 -40
-26 26 0 90 40 120 74 17 20 33 32 36 28 10 -17 -42 -89 -88 -119 -51 -35 -54
-43 -7 -18 16 8 45 33 65 57 37 43 47 38 22 -10 -17 -32 -71 -84 -106 -103
-14 -7 -47 -19 -75 -26 l-50 -13 43 5 c76 9 159 61 190 120 9 16 10 13 9 -18
0 -20 -4 -32 -7 -27 -3 5 -14 -4 -23 -20 -22 -36 -64 -67 -125 -91 -26 -10
-39 -18 -29 -19 32 0 106 42 142 81 43 48 46 28 5 -29 -33 -44 -75 -74 -136
-96 -22 -8 -32 -15 -24 -15 49 -2 156 74 186 132 40 76 37 281 -7 424 -51 165
-192 372 -243 358 -14 -4 -17 -3 -8 3 10 7 5 15 -21 35 -27 20 -36 23 -40 13
-3 -8 -22 -19 -41 -26 -20 -6 -34 -16 -31 -21 4 -5 -2 -6 -11 -2 -13 5 -15 3
-9 -7 6 -9 4 -11 -5 -5 -15 9 5 28 55 51 17 7 24 13 16 14 -11 0 -11 3 -1 15
19 23 2 18 -56 -15 -35 -20 -55 -26 -60 -19 -7 11 15 31 26 24 3 -2 16 5 30
15 l24 18 -32 -3 c-17 -1 -38 -8 -47 -15 -8 -7 -15 -8 -15 -2 0 14 26 33 40
30 7 -2 15 3 18 11 3 10 0 12 -13 7 -11 -4 -22 -1 -27 6 -6 10 -8 9 -8 -3 0
-11 -12 -19 -34 -23 -19 -4 -37 -12 -39 -19 -3 -7 -6 -5 -6 5 -1 14 25 31 52
33 4 0 7 5 8 10 1 6 -20 17 -45 25 l-46 15 -2 85 -2 85 -3 -82 c-3 -75 -6 -83
-23 -83 -17 0 -20 7 -21 43 l-2 42 -6 -38 c-3 -21 -9 -38 -13 -37 -5 0 -12 0
-17 0 -6 0 -12 24 -14 53 l-3 52 -2 -51 -2 -51 -40 0 c-27 0 -40 4 -43 16 -4
14 -5 13 -6 -1 -2 -30 -35 -17 -44 17 -4 15 -5 14 -6 -7 -1 -17 -7 -28 -15
-28 -8 0 -19 12 -25 28 l-11 27 5 -27 c4 -23 2 -28 -15 -28 -11 0 -20 6 -20
13 0 9 -2 9 -8 0 -18 -28 -34 -14 -67 62 -19 44 -51 104 -72 133 -39 58 -127
142 -148 142 -14 0 -29 29 -20 38 3 3 5 -1 5 -9 0 -12 2 -12 10 1 8 12 13 12
42 -2 54 -26 94 -65 148 -144 57 -87 67 -89 15 -4 -39 65 -108 132 -159 157
-31 14 -58 45 -38 42 19 -3 55 3 45 8 -24 9 -14 33 15 34 17 1 20 3 9 6 -29 7
-8 23 30 23 115 0 231 -133 289 -329 13 -42 23 -68 23 -58 1 29 -48 168 -76
217 -60 101 -157 179 -225 180 -16 0 -28 5 -28 10 0 6 6 10 14 10 8 0 16 7 20
15 4 11 21 15 63 15 122 0 226 -101 294 -284 11 -28 17 -37 14 -21 -11 57 -74
175 -120 224 -54 58 -118 91 -177 92 -33 0 -38 2 -23 9 11 5 38 9 60 10 35 2
37 3 15 10 -41 13 -52 11 -111 -21z m-173 -248 c2 -8 1 -8 -3 0 -4 8 -7 8 -13
-1 -5 -9 -9 -8 -13 3 -4 10 0 14 11 13 9 -2 17 -8 18 -15z m82 -22 c52 -38
122 -135 162 -223 33 -72 37 -96 17 -96 -7 0 -33 39 -58 88 -32 63 -63 107
-116 161 -70 71 -88 101 -60 101 7 0 32 -14 55 -31z m-161 -21 c-3 -8 -6 -5
-6 6 -1 11 2 17 5 13 3 -3 4 -12 1 -19z m27 7 c3 -8 1 -15 -4 -15 -6 0 -10 7
-10 15 0 8 2 15 4 15 2 0 6 -7 10 -15z m26 -13 c0 -15 -2 -15 -10 -2 -13 20
-13 33 0 25 6 -3 10 -14 10 -23z m31 4 c16 9 87 -55 134 -120 54 -76 98 -167
86 -179 -15 -15 -28 0 -63 66 -18 34 -66 96 -105 139 -40 43 -73 86 -72 95 0
11 3 13 6 5 2 -6 9 -10 14 -6z m-117 -31 c3 -8 1 -15 -4 -15 -6 0 -10 7 -10
15 0 8 2 15 4 15 2 0 6 -7 10 -15z m26 -13 c0 -15 -2 -15 -10 -2 -13 20 -13
33 0 25 6 -3 10 -14 10 -23z m17 -4 c-3 -8 -6 -5 -6 6 -1 11 2 17 5 13 3 -3 4
-12 1 -19z m33 -16 c0 -15 -2 -15 -10 -2 -13 20 -13 33 0 25 6 -3 10 -14 10
-23z m107 -57 c45 -54 113 -163 113 -182 0 -31 -31 -9 -69 50 -22 35 -50 74
-62 87 -12 14 -32 36 -45 50 -12 14 -25 35 -29 48 -7 23 -6 23 24 8 16 -9 47
-36 68 -61z m-230 33 c-3 -8 -6 -5 -6 6 -1 11 2 17 5 13 3 -3 4 -12 1 -19z
m20 0 c-3 -8 -6 -5 -6 6 -1 11 2 17 5 13 3 -3 4 -12 1 -19z m33 7 c0 -8 -4
-15 -10 -15 -5 0 -10 7 -10 15 0 8 5 15 10 15 6 0 10 -7 10 -15z m17 -17 c-3
-7 -5 -2 -5 12 0 14 2 19 5 13 2 -7 2 -19 0 -25z m33 -9 c0 -5 -4 -9 -10 -9
-5 0 -10 7 -10 16 0 8 5 12 10 9 6 -3 10 -10 10 -16z m-103 -31 c-3 -7 -5 -2
-5 12 0 14 2 19 5 13 2 -7 2 -19 0 -25z m20 0 c-3 -7 -5 -2 -5 12 0 14 2 19 5
13 2 -7 2 -19 0 -25z m100 10 c-3 -8 -6 -5 -6 6 -1 11 2 17 5 13 3 -3 4 -12 1
-19z m-80 -20 c-3 -7 -5 -2 -5 12 0 14 2 19 5 13 2 -7 2 -19 0 -25z m220 -101
c36 -54 43 -71 33 -80 -9 -9 -17 -5 -34 17 -11 16 -42 55 -68 87 -32 38 -48
68 -48 86 l0 27 36 -35 c19 -18 56 -65 81 -102z m-193 98 c-4 -8 -8 -15 -10
-15 -2 0 -4 7 -4 15 0 8 4 15 10 15 5 0 7 -7 4 -15z m23 -27 c-3 -7 -5 -2 -5
12 0 14 2 19 5 13 2 -7 2 -19 0 -25z m-120 0 c-3 -8 -6 -5 -6 6 -1 11 2 17 5
13 3 -3 4 -12 1 -19z m20 0 c-3 -8 -6 -5 -6 6 -1 11 2 17 5 13 3 -3 4 -12 1
-19z m34 -7 c7 11 9 10 9 -4 0 -22 -25 -18 -26 4 -1 12 0 12 4 0 3 -12 5 -12
13 0z m170 -59 c63 -79 74 -101 54 -108 -9 -4 -17 -5 -19 -3 -1 2 -23 33 -49
67 -42 58 -60 102 -39 102 4 0 28 -26 53 -58z m-241 28 c0 13 1 13 10 0 9 -13
10 -13 10 0 1 9 6 5 15 -10 8 -14 14 -19 15 -11 0 8 2 12 5 9 3 -3 2 -13 -1
-23 -6 -15 -8 -15 -20 6 -8 15 -13 18 -14 9 0 -13 -1 -13 -10 0 -9 13 -10 13
-10 0 0 -13 -1 -13 -10 0 -5 8 -10 20 -10 25 0 6 5 3 10 -5 9 -13 10 -13 10 0z
m86 -57 c-3 -4 -6 -1 -6 6 0 7 -4 9 -10 6 -6 -4 -7 1 -3 11 6 15 7 15 15 -1 6
-9 7 -19 4 -22z m-92 1 c10 -26 6 -30 -9 -10 -10 13 -15 15 -15 6 0 -7 -3 -11
-6 -7 -7 7 4 27 16 27 4 0 11 -7 14 -16z m37 -9 c5 4 12 -1 15 -9 3 -9 11 -13
18 -9 6 3 7 2 3 -2 -21 -23 -68 5 -67 40 0 5 5 2 11 -8 6 -9 14 -15 20 -12z
m226 -63 c9 -12 13 -25 10 -29 -4 -3 1 -11 10 -18 13 -9 13 -14 3 -20 -9 -5
-11 -4 -6 3 4 7 2 12 -4 12 -23 0 -80 74 -80 105 l1 30 25 -30 c14 -16 32 -40
41 -53z m-277 28 c0 9 3 10 13 1 8 -6 16 -9 19 -6 3 3 13 -5 24 -17 l19 -23
-22 19 c-32 27 -29 8 4 -28 18 -20 13 -17 -13 7 -29 27 -43 35 -46 25 -3 -8
-9 -4 -18 12 -12 23 -12 24 3 11 13 -10 17 -10 17 -1z m560 -22 c0 -5 -8 -8
-17 -8 -15 0 -16 2 -3 10 11 7 11 10 2 10 -7 0 -10 5 -6 11 6 11 23 -6 24 -23z
m35 12 c-3 -5 -11 -10 -16 -10 -6 0 -7 5 -4 10 3 6 11 10 16 10 6 0 7 -4 4
-10z m85 0 c0 -5 10 -11 23 -11 16 -1 18 -2 5 -6 -11 -3 -18 -14 -18 -28 0
-18 -7 -24 -36 -29 -19 -4 -42 -10 -50 -13 -8 -3 -14 -1 -14 4 0 5 21 15 47
21 26 7 43 16 37 20 -13 9 -16 52 -3 52 5 0 9 -4 9 -10z m-262 -21 c-10 -7
-10 -9 2 -9 8 0 22 5 30 10 12 8 12 10 1 10 -8 0 -11 3 -7 7 4 5 14 -1 22 -11
17 -23 18 -36 3 -36 -5 0 -7 5 -3 11 4 7 -1 9 -12 7 -19 -4 -21 -10 -9 -40 4
-11 3 -18 -5 -18 -6 0 -8 5 -5 10 3 6 1 10 -5 10 -6 0 -9 4 -6 9 4 5 2 11 -4
13 -6 2 -12 13 -14 25 -4 16 -1 20 11 16 12 -5 12 -7 1 -14z m227 11 c-3 -5
-10 -10 -16 -10 -5 0 -9 5 -9 10 0 6 7 10 16 10 8 0 12 -4 9 -10z m285 1 c0
-5 -7 -12 -16 -15 -21 -8 -24 -8 -24 5 0 5 5 7 10 4 6 -3 10 -1 10 4 0 6 5 11
10 11 6 0 10 -4 10 -9z m-320 -11 c0 -5 -7 -10 -16 -10 -8 0 -12 5 -9 10 3 6
10 10 16 10 5 0 9 -4 9 -10z m-566 -42 c4 4 6 0 4 -8 -2 -9 4 -15 13 -14 9 1
16 -5 16 -12 0 -18 -48 11 -85 50 l-27 29 36 -26 c20 -15 39 -24 43 -19z m202
-13 c-9 -23 -23 -11 -28 25 -5 31 -5 31 15 11 12 -11 17 -26 13 -36z m269 45
c-3 -5 -11 -10 -16 -10 -6 0 -7 5 -4 10 3 6 11 10 16 10 6 0 7 -4 4 -10z
m-180 -10 c-3 -5 -1 -10 5 -10 6 0 8 -4 5 -10 -3 -5 -1 -10 5 -10 6 0 8 -4 5
-10 -3 -5 -1 -10 6 -10 7 0 10 -2 7 -5 -8 -9 -38 6 -32 16 3 5 1 9 -5 9 -5 0
-8 8 -6 18 5 23 4 22 11 22 3 0 2 -4 -1 -10z m55 6 c0 -2 -7 -7 -16 -10 -8 -3
-12 -2 -9 4 6 10 25 14 25 6z m175 -6 c-3 -5 -10 -10 -16 -10 -5 0 -9 5 -9 10
0 6 7 10 16 10 8 0 12 -4 9 -10z m85 0 c0 -5 -7 -10 -15 -10 -8 0 -15 5 -15
10 0 6 7 10 15 10 8 0 15 -4 15 -10z m90 1 c0 -10 -30 -24 -37 -17 -3 3 -2 9
2 15 8 13 35 15 35 2z m-210 -11 c0 -5 -7 -10 -16 -10 -8 0 -12 5 -9 10 3 6
10 10 16 10 5 0 9 -4 9 -10z m80 0 c0 -5 -7 -10 -16 -10 -8 0 -12 5 -9 10 3 6
10 10 16 10 5 0 9 -4 9 -10z m297 -12 c-3 -8 -6 -5 -6 6 -1 11 2 17 5 13 3 -3
4 -12 1 -19z m-507 8 c0 -2 -7 -7 -16 -10 -8 -3 -12 -2 -9 4 6 10 25 14 25 6z
m165 -15 c-3 -6 -11 -8 -17 -5 -6 4 -5 9 3 15 16 10 23 4 14 -10z m215 10 c0
-12 -20 -25 -27 -18 -7 7 6 27 18 27 5 0 9 -4 9 -9z m-295 -11 c-3 -5 -10 -10
-16 -10 -5 0 -9 5 -9 10 0 6 7 10 16 10 8 0 12 -4 9 -10z m253 -2 c-3 -7 -13
-15 -24 -17 -16 -3 -17 -1 -5 13 16 19 34 21 29 4z m70 -60 c-7 -28 -17 -48
-25 -48 -7 0 -13 5 -13 10 0 6 5 10 11 10 6 0 8 9 4 20 -4 12 -2 20 6 20 9 0
9 3 0 14 -8 10 -9 16 -1 21 6 3 7 12 4 18 -4 7 0 5 9 -3 13 -13 14 -22 5 -62z
m164 50 c-7 -7 -12 -8 -12 -2 0 6 3 14 7 17 3 4 9 5 12 2 2 -3 -1 -11 -7 -17z
m-438 -4 c8 -22 8 -24 -7 -24 -7 0 -13 9 -14 20 -2 24 12 27 21 4z m-37 -14
c1 -11 -3 -20 -8 -20 -6 0 -7 5 -4 10 3 6 1 10 -5 10 -6 0 -8 5 -5 10 10 16
21 11 22 -10z m83 10 c0 -5 -7 -10 -16 -10 -8 0 -12 5 -9 10 3 6 10 10 16 10
5 0 9 -4 9 -10z m110 0 c0 -5 -6 -10 -14 -10 -8 0 -21 -3 -30 -6 -9 -3 -16 -1
-16 4 0 9 9 13 53 21 4 0 7 -3 7 -9z m-373 -7 c-4 -3 1 -12 11 -20 15 -13 15
-13 -6 -3 -19 9 -23 30 -5 30 4 0 3 -3 0 -7z m453 -23 c0 -20 -5 -30 -15 -30
-8 0 -15 5 -15 10 0 6 5 10 11 10 8 0 9 4 0 13 -6 8 -8 17 -4 20 14 15 23 6
23 -23z m-313 14 c-3 -3 -12 -4 -19 -1 -8 3 -5 6 6 6 11 1 17 -2 13 -5z m163
-4 c0 -5 -7 -10 -15 -10 -8 0 -15 5 -15 10 0 6 7 10 15 10 8 0 15 -4 15 -10z
m110 -20 c0 -20 -5 -30 -15 -30 -18 0 -20 17 -3 22 7 3 6 7 -5 11 -14 5 -17 0
-17 -33 0 -38 -12 -52 -25 -30 -3 6 -1 10 5 10 6 0 8 5 5 10 -4 6 -15 8 -26 5
-10 -4 -19 -2 -19 4 0 5 10 11 23 13 14 2 21 9 19 20 -2 15 3 18 51 27 4 0 7
-12 7 -29z m123 23 c4 -3 2 -12 -4 -20 -6 -7 -8 -13 -5 -13 4 0 2 -9 -4 -20
-13 -24 -30 -26 -30 -5 0 8 5 15 11 15 5 0 7 5 4 10 -14 23 11 51 28 33z
m-273 -23 c0 -11 -4 -20 -8 -20 -4 0 -8 9 -9 20 -1 11 2 20 8 20 5 0 9 -9 9
-20z m605 10 c4 -6 -6 -10 -22 -10 -22 0 -25 2 -13 10 19 12 27 12 35 0z
m-717 -18 c2 -7 -1 -12 -8 -12 -6 0 -9 4 -6 9 4 5 1 12 -4 14 -6 3 -5 4 2 3 6
-1 14 -8 16 -14z m76 2 c9 -22 -3 -32 -14 -14 -12 19 -12 30 -1 30 5 0 12 -7
15 -16z m116 6 c0 -5 -7 -10 -15 -10 -8 0 -15 5 -15 10 0 6 7 10 15 10 8 0 15
-4 15 -10z m-40 -10 c0 -5 -4 -10 -9 -10 -6 0 -13 5 -16 10 -3 6 1 10 9 10 9
0 16 -4 16 -10z m260 -14 c-1 -5 3 -12 9 -16 7 -4 9 -19 5 -38 -5 -25 -12 -32
-30 -32 -30 0 -32 20 -1 21 l22 2 -22 4 c-27 5 -30 21 -7 30 11 4 12 8 4 13
-7 4 -9 13 -5 19 8 13 27 11 25 -3z m288 7 c-10 -2 -18 -9 -18 -14 0 -5 -12
-7 -27 -4 -24 5 -25 4 -8 -5 18 -9 17 -10 -5 -5 -14 2 -29 5 -35 5 -24 2 53
28 80 28 17 0 22 -2 13 -5z m-733 -13 c3 -5 1 -10 -4 -10 -6 0 -11 5 -11 10 0
6 2 10 4 10 3 0 8 -4 11 -10z m-400 -10 c3 -5 -3 -10 -14 -10 -11 0 -23 5 -26
10 -3 6 3 10 14 10 11 0 23 -4 26 -10z m545 0 c0 -5 -4 -10 -10 -10 -5 0 -10
5 -10 10 0 6 5 10 10 10 6 0 10 -4 10 -10z m37 -10 c1 -11 -2 -20 -8 -20 -5 0
-9 9 -9 20 0 11 4 20 8 20 4 0 8 -9 9 -20z m143 4 c0 -11 -6 -14 -20 -9 -14 5
-20 2 -20 -9 0 -23 -15 -20 -17 3 -2 18 4 21 50 30 4 0 7 -6 7 -15z m446 9
c-15 -4 -16 -7 -5 -14 9 -6 1 -8 -26 -7 -23 0 -30 3 -17 5 12 2 22 9 22 14 0
5 10 8 23 8 19 -1 19 -2 3 -6z m-1109 -9 c-3 -3 -12 -4 -19 -1 -8 3 -5 6 6 6
11 1 17 -2 13 -5z m978 -12 c-3 -3 -11 0 -18 7 -9 10 -8 11 6 5 10 -3 15 -9
12 -12z m170 8 c-3 -5 0 -10 7 -10 9 0 9 -3 -2 -10 -8 -5 -10 -10 -5 -10 6 0
3 -5 -5 -10 -8 -5 -26 -9 -40 -9 -15 0 -19 3 -10 6 8 3 24 16 34 29 20 24 32
32 21 14z m-1002 -22 c8 -30 -2 -37 -19 -14 -18 25 -18 36 0 36 7 0 16 -10 19
-22z m202 12 c3 -5 1 -10 -4 -10 -6 0 -11 5 -11 10 0 6 2 10 4 10 3 0 8 -4 11
-10z m205 0 c0 -5 -4 -10 -10 -10 -5 0 -10 5 -10 10 0 6 5 10 10 10 6 0 10 -4
10 -10z m-645 -10 c3 -5 -1 -10 -9 -10 -9 0 -16 5 -16 10 0 6 4 10 9 10 6 0
13 -4 16 -10z m74 -9 c9 -16 8 -18 -10 -14 -15 4 -17 8 -8 14 8 5 2 9 -17 12
l-29 4 27 2 c18 0 31 -6 37 -18z m141 -24 c0 -5 8 -16 18 -23 16 -12 15 -13
-5 -14 -13 0 -23 5 -23 11 0 6 -10 19 -22 28 -13 11 -18 23 -14 30 6 9 13 8
27 -5 10 -9 19 -22 19 -27z m367 37 c-3 -3 -12 -4 -19 -1 -8 3 -5 6 6 6 11 1
17 -2 13 -5z m199 -21 c-10 -10 -19 5 -10 18 6 11 8 11 12 0 2 -7 1 -15 -2
-18z m44 18 c0 -12 -20 -25 -27 -18 -7 7 6 27 18 27 5 0 9 -4 9 -9z m-70 -5
c0 -11 -19 -15 -25 -6 -3 5 1 10 9 10 9 0 16 -2 16 -4z m408 -3 c-10 -2 -28
-2 -40 0 -13 2 -5 4 17 4 22 1 32 -1 23 -4z m-1131 -19 c-3 -3 -12 -4 -19 -1
-8 3 -5 6 6 6 11 1 17 -2 13 -5z m140 -10 c8 -22 83 -100 83 -87 0 7 -4 15
-10 18 -13 8 -13 25 0 25 5 0 14 -9 20 -21 9 -17 8 -23 -7 -34 -16 -12 -23 -8
-65 38 -46 49 -60 77 -38 77 6 0 13 -7 17 -16z m940 10 c-3 -3 -12 -4 -19 -1
-8 3 -5 6 6 6 11 1 17 -2 13 -5z m164 -1 c-11 -5 -11 -7 0 -14 11 -7 11 -9 1
-9 -7 0 -10 -5 -7 -10 6 -10 -16 -21 -65 -34 -21 -5 -20 -3 5 9 17 8 23 15 15
15 -8 1 -1 8 15 15 17 8 26 14 22 15 -5 0 -5 5 -2 10 3 6 12 10 18 9 8 0 7 -3
-2 -6z m-86 -23 c-28 -12 -37 -12 -30 0 3 6 16 10 28 9 21 0 21 -1 2 -9z
m-1150 -29 c3 -5 1 -12 -5 -16 -5 -3 -10 1 -10 9 0 18 6 21 15 7z m154 -41
c31 -36 47 -47 55 -41 13 11 53 -26 41 -37 -4 -4 -11 1 -16 11 -10 17 -29 23
-29 9 0 -5 9 -18 21 -30 18 -21 19 -24 4 -39 -12 -12 -19 -13 -28 -4 -8 8 -7
11 6 11 9 0 17 5 17 11 0 6 -9 8 -22 3 -31 -9 -34 -12 -20 -26 7 -7 12 -17 12
-22 0 -6 -12 3 -28 20 -32 36 -64 51 -55 27 5 -12 1 -14 -15 -8 -28 8 -28 1 0
-25 12 -11 17 -20 11 -20 -5 0 -18 9 -29 21 -19 21 -18 21 5 40 29 24 50 24
67 2 11 -15 15 -16 23 -4 5 7 14 10 20 7 6 -4 11 -1 11 7 0 8 -7 18 -16 21 -8
3 -13 10 -10 15 3 5 -4 11 -15 14 -12 3 -18 10 -15 15 3 5 -4 12 -15 15 -12 3
-18 10 -15 15 3 5 -4 12 -15 15 -12 3 -18 10 -14 16 10 18 18 13 64 -39z
m1113 43 c-6 -2 -10 -9 -7 -14 3 -4 -11 -15 -31 -24 -51 -21 -57 -17 -9 6 22
10 33 19 25 19 -13 0 -13 1 0 10 8 5 20 9 25 9 6 0 4 -3 -3 -6z m33 -43 c-3
-5 -12 -10 -18 -10 -7 0 -6 4 3 10 19 12 23 12 15 0z m-1163 -39 c21 -22 35
-42 31 -44 -4 -3 -28 15 -52 39 -24 24 -38 44 -31 44 7 0 30 -18 52 -39z m770
7 c-6 -6 -15 -8 -19 -4 -4 4 -1 11 7 16 19 12 27 3 12 -12z m-827 2 c3 -6 -1
-7 -9 -4 -18 7 -21 14 -7 14 6 0 13 -4 16 -10z m795 6 c0 -3 -4 -8 -10 -11 -5
-3 -10 -1 -10 4 0 6 5 11 10 11 6 0 10 -2 10 -4z m-835 -24 c-3 -3 -11 0 -18
7 -9 10 -8 11 6 5 10 -3 15 -9 12 -12z m1280 -1 c3 -5 2 -12 -3 -15 -5 -3 -9
1 -9 9 0 17 3 19 12 6z m-1210 -11 c3 -5 -1 -10 -9 -10 -8 0 -18 5 -21 10 -3
6 1 10 9 10 8 0 18 -4 21 -10z m1115 6 c0 -2 -8 -10 -17 -17 -16 -13 -17 -12
-4 4 13 16 21 21 21 13z m-352 -18 c-6 -18 -25 -21 -31 -5 -3 8 3 13 15 14 10
1 18 -3 16 -9z m32 -3 c0 -8 -4 -15 -10 -15 -5 0 -10 7 -10 15 0 8 5 15 10 15
6 0 10 -7 10 -15z m17 -7 c-3 -8 -6 -5 -6 6 -1 11 2 17 5 13 3 -3 4 -12 1 -19z
m-837 2 c0 -5 -4 -10 -10 -10 -5 0 -10 5 -10 10 0 6 5 10 10 10 6 0 10 -4 10
-10z m1215 1 c3 -5 2 -12 -3 -15 -5 -3 -9 1 -9 9 0 17 3 19 12 6z m-29 -16
c-1 -8 -5 -17 -8 -21 -5 -4 -4 16 1 34 3 9 9 -1 7 -13z m-996 -5 c0 -5 -4 -10
-10 -10 -5 0 -10 5 -10 10 0 6 5 10 10 10 6 0 10 -4 10 -10z m557 -22 c-3 -8
-6 -5 -6 6 -1 11 2 17 5 13 3 -3 4 -12 1 -19z m20 0 c-3 -8 -6 -5 -6 6 -1 11
2 17 5 13 3 -3 4 -12 1 -19z m53 7 c0 -8 -9 -13 -20 -12 -11 1 -20 6 -20 12 0
6 9 11 20 12 11 1 20 -4 20 -12z m435 6 c3 -5 2 -12 -3 -15 -5 -3 -9 1 -9 9 0
17 3 19 12 6z m-1035 -5 c0 -8 -31 -36 -41 -36 -5 0 -9 5 -9 12 0 6 3 9 6 5 4
-3 13 0 21 8 14 15 23 19 23 11z m-151 -31 c13 -14 18 -25 12 -25 -13 0 -51
31 -51 42 0 15 15 8 39 -17z m1162 8 c13 -16 12 -17 -3 -4 -17 13 -22 21 -14
21 2 0 10 -8 17 -17z m-534 -15 c-3 -8 -6 -5 -6 6 -1 11 2 17 5 13 3 -3 4 -12
1 -19z m53 1 c0 -4 -9 -7 -20 -6 -11 1 -20 7 -20 13 0 7 8 10 20 7 11 -3 20
-9 20 -14z m527 6 c0 -8 -4 -12 -9 -9 -5 3 -6 10 -3 15 9 13 12 11 12 -6z
m-510 -17 c-3 -8 -6 -5 -6 6 -1 11 2 17 5 13 3 -3 4 -12 1 -19z m20 0 c-3 -8
-6 -5 -6 6 -1 11 2 17 5 13 3 -3 4 -12 1 -19z m43 0 c0 -5 -4 -7 -9 -4 -5 4
-12 0 -14 -6 -3 -7 -6 -3 -6 9 -1 16 3 21 14 17 8 -4 15 -10 15 -16z m-670 2
c0 -5 -2 -10 -4 -10 -3 0 -8 5 -11 10 -3 6 -1 10 4 10 6 0 11 -4 11 -10z
m-155 -10 c3 -5 1 -10 -4 -10 -6 0 -11 5 -11 10 0 6 2 10 4 10 3 0 8 -4 11
-10z m130 0 c3 -5 1 -10 -4 -10 -6 0 -11 5 -11 10 0 6 2 10 4 10 3 0 8 -4 11
-10z m70 0 c3 -5 1 -10 -4 -10 -6 0 -11 5 -11 10 0 6 2 10 4 10 3 0 8 -4 11
-10z m409 -13 c3 4 6 1 6 -6 0 -8 -7 -11 -15 -7 -8 3 -19 -3 -25 -12 -9 -14
-10 -13 -4 7 4 16 3 21 -5 17 -6 -4 -11 -2 -11 4 0 6 -5 8 -12 4 -7 -4 -8 -3
-4 4 5 9 15 8 35 -3 16 -8 31 -11 35 -8z m53 1 c-3 -8 -6 -5 -6 6 -1 11 2 17
5 13 3 -3 4 -12 1 -19z m597 1 c-3 -5 -10 -7 -15 -3 -5 3 -7 10 -3 15 3 5 10
7 15 3 5 -3 7 -10 3 -15z m-1199 1 c3 -5 -1 -10 -9 -10 -8 0 -18 5 -21 10 -3
6 1 10 9 10 8 0 18 -4 21 -10z m655 -2 c0 -3 -9 -6 -20 -5 -11 1 -20 5 -20 9
0 3 9 6 20 5 11 -1 20 -5 20 -9z m-605 -8 c3 -5 2 -10 -4 -10 -5 0 -13 5 -16
10 -3 6 -2 10 4 10 5 0 13 -4 16 -10z m622 -12 c-3 -8 -6 -5 -6 6 -1 11 2 17
5 13 3 -3 4 -12 1 -19z m53 -5 c0 -12 -3 -13 -13 -4 -8 6 -17 8 -20 4 -4 -3
-7 1 -7 9 0 11 6 14 20 11 11 -3 20 -12 20 -20z m-750 7 c0 -5 -2 -10 -4 -10
-2 0 -12 -3 -22 -7 -16 -6 -17 -5 -4 10 17 19 30 22 30 7z m120 0 c0 -5 -2
-10 -4 -10 -3 0 -8 5 -11 10 -3 6 -1 10 4 10 6 0 11 -4 11 -10z m647 -12 c-3
-8 -6 -5 -6 6 -1 11 2 17 5 13 3 -3 4 -12 1 -19z m-705 -5 c19 -17 25 -39 8
-28 -5 3 -10 -1 -10 -9 0 -21 -20 -31 -33 -16 -9 10 -8 12 6 7 12 -5 16 -3 11
4 -4 6 0 15 7 20 11 7 10 11 -6 23 -11 9 -16 16 -11 16 5 0 18 -7 28 -17z m95
-7 c-13 -15 -27 -12 -27 5 0 6 5 7 10 4 6 -3 10 -1 10 5 0 6 4 8 10 5 6 -4 5
-11 -3 -19z m-127 -7 c0 -6 -4 -7 -10 -4 -5 3 -10 11 -10 16 0 6 5 7 10 4 6
-3 10 -11 10 -16z m83 3 c15 -17 15 -19 -3 -32 -10 -7 -17 -17 -14 -22 6 -9
-10 -11 -19 -2 -4 4 3 15 15 26 21 18 21 19 2 33 -10 8 -14 15 -8 15 6 0 18
-8 27 -18z m557 0 c0 -11 -3 -12 -13 -3 -8 6 -17 8 -20 4 -4 -3 -7 -1 -7 5 0
6 9 10 20 9 11 -1 20 -8 20 -15z m-80 -5 c0 -4 5 -5 10 -2 6 3 10 -1 10 -11 0
-13 -3 -14 -15 -4 -8 7 -15 9 -15 4 0 -5 -5 -2 -10 6 -8 13 -11 11 -16 -7 -5
-18 -9 -20 -24 -10 -10 6 -16 15 -13 20 3 5 9 3 14 -4 6 -11 9 -10 14 3 7 17
45 21 45 5z m130 -4 c0 -6 -9 -11 -20 -10 -11 1 -20 7 -20 14 0 6 9 11 20 10
11 -1 20 -7 20 -14z m-715 -3 c3 -5 1 -10 -4 -10 -6 0 -11 5 -11 10 0 6 2 10
4 10 3 0 8 -4 11 -10z m732 -12 c-3 -8 -6 -5 -6 6 -1 11 2 17 5 13 3 -3 4 -12
1 -19z m-97 3 c0 -6 -4 -13 -10 -16 -5 -3 -10 1 -10 9 0 9 5 16 10 16 6 0 10
-4 10 -9z m-426 -16 c-4 -9 -15 -20 -25 -26 -15 -7 -17 -6 -13 6 3 8 10 13 14
10 4 -3 10 2 14 10 3 8 8 15 10 15 3 0 3 -7 0 -15z m460 9 c17 -7 22 -34 6
-34 -5 0 -10 8 -10 18 0 14 -2 15 -10 2 -8 -13 -10 -12 -10 3 0 19 1 20 24 11z
m-527 -28 c-6 -8 -15 -12 -19 -9 -4 2 -2 10 5 17 6 8 15 12 19 9 4 -2 2 -10
-5 -17z m358 -3 c-3 -15 -10 -30 -15 -33 -5 -3 -5 -12 1 -20 7 -12 10 -11 15
8 4 12 10 22 15 22 12 0 11 -14 -2 -27 -8 -8 -6 -14 10 -22 13 -7 18 -17 14
-28 -6 -14 -8 -14 -20 3 -7 10 -13 15 -13 11 0 -4 -9 2 -21 14 -21 21 -21 22
-3 60 22 46 29 50 19 12z m83 19 c7 -5 10 -19 8 -33 -3 -13 -5 -28 -5 -33 -1
-6 -6 -5 -13 2 -8 8 -8 15 2 26 10 13 9 17 -4 22 -9 3 -16 10 -16 15 0 11 11
11 28 1z m145 -18 c-4 -11 -8 -12 -13 -4 -6 9 -9 9 -13 -1 -4 -10 -6 -9 -6 4
-1 11 6 17 19 17 14 0 18 -5 13 -16z m-193 -4 c0 -5 -4 -10 -10 -10 -5 0 -10
5 -10 10 0 6 5 10 10 10 6 0 10 -4 10 -10z m90 0 c0 -5 -4 -10 -10 -10 -5 0
-10 5 -10 10 0 6 5 10 10 10 6 0 10 -4 10 -10z m-557 -7 c3 -5 -1 -14 -9 -20
-8 -8 -15 -9 -19 -3 -3 6 -1 10 5 10 6 0 8 5 5 10 -3 6 -2 10 4 10 5 0 12 -3
14 -7z m497 -2 c0 -6 -4 -13 -10 -16 -5 -3 -10 1 -10 9 0 9 5 16 10 16 6 0 10
-4 10 -9z m94 3 c9 -3 16 -13 16 -21 0 -12 -3 -13 -13 -4 -8 6 -17 8 -20 4 -4
-3 -7 1 -7 10 0 19 2 20 24 11z m-539 -14 c3 -6 -1 -7 -10 -4 -11 5 -14 2 -9
-12 6 -15 4 -16 -6 -7 -7 6 -9 16 -6 22 9 14 23 14 31 1z m34 -11 c-8 -5 -9
-9 -4 -9 6 0 6 -3 -1 -8 -6 -4 -15 -15 -21 -26 -7 -12 -13 -15 -17 -7 -4 6 -2
11 4 11 6 0 8 5 5 10 -3 6 -2 10 4 10 5 0 13 9 16 20 4 11 11 17 17 14 6 -4 5
-10 -3 -15z m557 -1 c4 -6 3 -8 -4 -4 -5 3 -13 0 -15 -6 -3 -8 -6 -6 -6 5 -1
19 14 23 25 5z m-96 -13 c0 -8 -4 -15 -9 -15 -5 0 -7 -9 -4 -20 3 -11 0 -20
-6 -20 -6 0 -11 7 -11 15 0 9 -6 12 -15 9 -10 -4 -15 0 -16 12 0 11 -3 14 -6
6 -5 -14 -23 -7 -23 10 0 10 16 8 53 -7 12 -5 17 -2 17 9 0 9 5 16 10 16 6 0
10 -7 10 -15z m-430 -26 c-6 -10 -15 -19 -21 -19 -6 0 -8 -3 -6 -7 3 -5 -1
-14 -9 -20 -8 -8 -15 -9 -19 -3 -3 6 -1 10 5 10 6 0 9 4 5 9 -3 5 4 12 15 16
11 4 18 11 15 16 -4 5 -1 9 5 9 6 0 8 5 4 12 -4 7 -3 8 4 4 9 -5 9 -13 2 -27z
m460 16 c0 -8 -4 -15 -10 -15 -5 0 -10 7 -10 15 0 8 5 15 10 15 6 0 10 -7 10
-15z m-200 -4 c0 -6 -5 -13 -10 -16 -6 -4 -8 -11 -5 -16 4 -5 0 -12 -8 -15 -9
-3 -13 -13 -10 -25 3 -11 0 -19 -7 -19 -15 0 -5 63 10 68 6 2 10 10 10 18 0 8
5 14 10 14 6 0 10 -4 10 -9z m210 -38 c-11 -17 -11 -17 -6 0 3 10 7 26 7 35 1
15 2 15 6 0 2 -10 -1 -25 -7 -35z m40 33 c0 -3 -4 -8 -10 -11 -5 -3 -10 -1
-10 4 0 6 5 11 10 11 6 0 10 -2 10 -4z m-215 -22 c14 -9 22 -21 19 -26 -4 -6
-12 -31 -19 -57 -10 -38 -14 -42 -21 -27 -4 12 -3 21 3 23 6 2 9 13 6 23 -3
11 -1 20 5 20 6 0 8 9 5 20 -3 10 -10 18 -15 17 -6 -1 -13 4 -15 11 -6 16 3
15 32 -4z m-375 -9 c11 -13 10 -14 -4 -9 -9 3 -16 10 -16 15 0 13 6 11 20 -6z
m530 0 c0 -8 -4 -15 -10 -15 -5 0 -10 7 -10 15 0 8 5 15 10 15 6 0 10 -7 10
-15z m-67 -1 c9 -9 -4 -35 -14 -28 -5 3 -9 12 -9 20 0 14 12 19 23 8z m-113
-30 c0 -8 -4 -12 -10 -9 -5 3 -10 13 -10 21 0 8 5 12 10 9 6 -3 10 -13 10 -21z
m-364 4 c-1 -7 -18 -47 -38 -88 -20 -41 -39 -88 -43 -105 -3 -16 8 5 26 47 17
42 44 91 59 110 l28 33 -3 -30 c-4 -42 -70 -206 -86 -216 -21 -13 -29 -11 -30
9 0 11 -4 7 -11 -10 -5 -16 -14 -28 -19 -28 -6 0 -7 -4 -4 -10 3 -6 -1 -7 -9
-4 -22 8 -20 37 9 117 28 81 82 175 104 180 9 3 17 5 18 6 1 0 0 -5 -1 -11z
m435 -9 c-2 -8 -3 -22 -3 -31 0 -10 -7 -22 -17 -28 -16 -8 -17 -6 -13 15 2 14
8 25 12 25 5 0 6 10 3 21 -5 16 -2 20 8 17 8 -3 12 -12 10 -19z m69 4 c0 -10
-4 -23 -8 -30 -11 -17 -46 -9 -50 10 -4 18 13 23 23 7 11 -18 23 -11 18 10 -3
11 0 20 6 20 6 0 11 -8 11 -17z m-408 0 c-6 -2 -10 -9 -6 -14 3 -5 1 -9 -3 -9
-5 0 -9 -10 -10 -22 -3 -61 -79 -195 -99 -175 -3 3 9 42 26 87 22 56 39 84 53
90 12 5 18 9 14 9 -4 1 -3 10 3 21 6 11 16 20 23 19 9 0 9 -2 -1 -6z m438 -3
c0 -5 -4 -10 -10 -10 -5 0 -10 5 -10 10 0 6 5 10 10 10 6 0 10 -4 10 -10z
m-263 -36 c-9 -18 -16 -23 -22 -15 -4 7 1 21 11 32 23 26 29 17 11 -17z m-140
11 c0 -8 -3 -15 -7 -15 -3 0 -6 -10 -6 -22 -1 -36 -30 -95 -53 -108 -27 -14
-27 -3 0 61 12 27 27 49 34 49 7 0 12 8 11 18 -3 13 8 30 20 32 0 0 1 -7 1
-15z m223 -11 c0 -8 -4 -14 -9 -14 -11 0 -22 26 -14 34 9 9 23 -3 23 -20z
m-46 8 c9 -15 -6 -52 -20 -52 -15 0 -18 18 -8 44 7 17 20 21 28 8z m31 -42 c0
-7 -6 -15 -12 -17 -8 -3 -13 4 -13 17 0 13 5 20 13 18 6 -3 12 -11 12 -18z
m-189 1 c-4 -5 -1 -11 5 -13 5 -2 -1 -14 -15 -27 -30 -28 -36 -10 -10 27 14
21 31 32 20 13z m334 -11 c0 -5 -5 -10 -11 -10 -5 0 -7 5 -4 10 3 6 8 10 11
10 2 0 4 -4 4 -10z m-35 -30 c-3 -5 -11 -10 -16 -10 -6 0 -7 5 -4 10 3 6 11
10 16 10 6 0 7 -4 4 -10z m-47 -40 c-2 -30 -12 -38 -23 -20 -3 6 -2 10 4 10 5
0 8 9 6 20 -2 11 0 20 6 20 5 0 8 -13 7 -30z m72 20 c0 -5 -5 -10 -11 -10 -5
0 -7 5 -4 10 3 6 8 10 11 10 2 0 4 -4 4 -10z m-113 -35 c0 -8 -4 -12 -9 -9 -5
3 -6 10 -3 15 9 13 12 11 12 -6z m76 3 c-4 -7 -8 -16 -8 -20 0 -3 -3 -10 -8
-14 -4 -4 -6 5 -5 19 1 15 8 27 16 27 8 0 10 -5 5 -12z m-83 -39 c0 -6 -4 -7
-10 -4 -5 3 -10 11 -10 16 0 6 5 7 10 4 6 -3 10 -11 10 -16z m-133 -21 c-3 -7
-5 -2 -5 12 0 14 2 19 5 13 2 -7 2 -19 0 -25z m170 7 c-3 -26 -19 -35 -25 -16
-2 6 1 11 7 11 6 0 8 7 5 15 -4 8 -1 15 5 15 7 0 10 -11 8 -25z m-181 -82 c-1
-28 -5 -55 -9 -59 -8 -8 -9 -4 -11 54 -2 26 1 37 6 30 6 -8 7 1 3 22 -4 23 -3
30 3 20 5 -8 9 -38 8 -67z m21 35 c-3 -8 -6 -5 -6 6 -1 11 2 17 5 13 3 -3 4
-12 1 -19z m-337 -54 c0 -2 -9 0 -20 6 -11 6 -20 13 -20 16 0 2 9 0 20 -6 11
-6 20 -13 20 -16z m46 1 c1 -9 -4 -11 -14 -7 -10 4 -12 7 -4 10 7 2 9 9 5 15
-3 7 -2 8 2 4 5 -4 10 -14 11 -22z m170 -9 c1 -14 -5 -30 -14 -37 -14 -11 -15
-11 -4 1 18 21 15 34 -5 19 -15 -11 -16 -11 -5 1 6 8 12 18 12 23 0 4 -6 5
-12 1 -9 -5 -8 -2 1 9 16 21 23 16 27 -17z m54 23 c0 -4 -4 -11 -10 -14 -5 -3
-10 -11 -10 -16 0 -6 4 -8 9 -5 14 9 23 -26 11 -38 -8 -8 -9 -6 -4 8 5 12 4
17 -3 13 -11 -7 -36 39 -29 52 7 10 36 10 36 0z m-340 -9 c-12 -7 -12 -10 -1
-10 7 0 11 -6 7 -15 -3 -8 0 -15 6 -15 6 0 9 -3 5 -6 -3 -3 -14 -1 -24 5 -12
7 -13 10 -4 11 10 0 11 3 2 13 -11 14 -5 27 13 27 6 0 4 -5 -4 -10z m175 -20
c-1 -16 1 -30 5 -30 10 0 7 -27 -5 -37 -4 -4 -5 -3 -2 3 4 7 0 15 -9 18 -9 4
-12 11 -7 18 4 7 8 21 9 31 2 22 3 27 8 27 2 0 2 -13 1 -30z m-220 0 c8 -13
-5 -13 -25 0 -13 8 -13 10 2 10 9 0 20 -4 23 -10z m275 6 c0 -2 -8 -10 -17
-17 -16 -13 -17 -12 -4 4 13 16 21 21 21 13z m-325 -16 c3 -5 2 -10 -4 -10 -5
0 -13 5 -16 10 -3 6 -2 10 4 10 5 0 13 -4 16 -10z m155 -10 c13 -8 13 -10 1
-10 -11 0 -9 -4 5 -16 18 -14 18 -15 -4 -4 -12 6 -20 15 -17 20 3 4 -1 11 -7
13 -7 3 -8 6 -3 6 6 0 17 -4 25 -9z m56 -7 c-2 -10 4 -24 13 -31 14 -11 13
-11 -7 -2 -12 6 -20 15 -17 21 4 5 0 9 -7 9 -9 0 -9 3 2 10 19 13 19 13 16 -7z
m121 11 c-3 -4 -2 -15 3 -25 7 -12 6 -20 -2 -25 -6 -4 -8 -3 -5 3 4 6 0 14 -9
17 -13 5 -14 9 -4 21 7 8 15 15 18 15 3 0 2 -3 -1 -6z m-270 -10 c-3 -3 -12
-4 -19 -1 -8 3 -5 6 6 6 11 1 17 -2 13 -5z m333 -8 c0 -2 -8 -10 -17 -17 -16
-13 -17 -12 -4 4 13 16 21 21 21 13z m-325 -16 c3 -6 -1 -7 -9 -4 -18 7 -21
14 -7 14 6 0 13 -4 16 -10z"/>
<path d="M3208 3113 c7 -3 16 -2 19 1 4 3 -2 6 -13 5 -11 0 -14 -3 -6 -6z"/>
<path d="M2608 4004 c83 -41 147 -124 194 -249 10 -28 16 -37 13 -20 -10 54
-73 169 -117 214 -42 42 -104 81 -130 81 -6 0 11 -12 40 -26z"/>
<path d="M2529 3997 c47 -15 141 -105 176 -169 16 -29 39 -87 52 -128 12 -41
22 -68 22 -59 2 63 -78 230 -142 297 -32 33 -103 73 -128 71 -8 -1 1 -6 20
-12z"/>
<path d="M2421 3944 c94 -28 179 -135 231 -289 15 -44 28 -73 28 -64 1 58 -85
231 -142 289 -42 42 -112 80 -144 79 -10 0 2 -7 27 -15z"/>
<path d="M2370 3863 c89 -63 145 -143 191 -271 15 -43 28 -72 28 -66 1 21 -38
125 -69 183 -35 66 -100 136 -145 157 l-30 14 25 -17z"/>
<path d="M2334 3819 c78 -52 139 -138 186 -266 16 -43 29 -71 29 -63 1 8 -14
51 -32 95 -47 116 -111 202 -182 246 -50 31 -52 21 -1 -12z"/>
<path d="M2822 3680 c0 -14 2 -19 5 -12 2 6 2 18 0 25 -3 6 -5 1 -5 -13z"/>
<path d="M2832 3625 c0 -16 2 -22 5 -12 2 9 2 23 0 30 -3 6 -5 -1 -5 -18z"/>
<path d="M2722 3620 c0 -14 2 -19 5 -12 2 6 2 18 0 25 -3 6 -5 1 -5 -13z"/>
<path d="M2782 3590 c0 -19 2 -27 5 -17 2 9 2 25 0 35 -3 9 -5 1 -5 -18z"/>
<path d="M2732 3565 c0 -16 2 -22 5 -12 2 9 2 23 0 30 -3 6 -5 -1 -5 -18z"/>
<path d="M2461 3565 c0 -5 6 -21 14 -35 8 -14 14 -20 14 -15 0 6 -6 21 -14 35
-8 14 -14 21 -14 15z"/>
<path d="M2682 3550 c0 -14 2 -19 5 -12 2 6 2 18 0 25 -3 6 -5 1 -5 -13z"/>
<path d="M2792 3520 c0 -14 2 -19 5 -12 2 6 2 18 0 25 -3 6 -5 1 -5 -13z"/>
<path d="M2693 3485 c0 -22 2 -30 4 -17 2 12 2 30 0 40 -3 9 -5 -1 -4 -23z"/>
<path d="M2591 3494 c0 -11 3 -14 6 -6 3 7 2 16 -1 19 -3 4 -6 -2 -5 -13z"/>
<path d="M2642 3485 c0 -16 2 -22 5 -12 2 9 2 23 0 30 -3 6 -5 -1 -5 -18z"/>
<path d="M2978 3013 c12 -2 30 -2 40 0 9 3 -1 5 -23 4 -22 0 -30 -2 -17 -4z"/>
<path d="M1879 2958 c-152 -101 -282 -278 -278 -376 1 -20 3 -16 9 15 22 109
128 249 259 340 73 52 88 63 79 63 -3 0 -34 -19 -69 -42z"/>
<path d="M3053 2973 c9 -2 23 -2 30 0 6 3 -1 5 -18 5 -16 0 -22 -2 -12 -5z"/>
<path d="M3058 2923 c12 -2 30 -2 40 0 9 3 -1 5 -23 4 -22 0 -30 -2 -17 -4z"/>
<path d="M3158 2883 c7 -3 16 -2 19 1 4 3 -2 6 -13 5 -11 0 -14 -3 -6 -6z"/>
<path d="M3073 2873 c15 -2 37 -2 50 0 12 2 0 4 -28 4 -27 0 -38 -2 -22 -4z"/>
<path d="M3195 2840 c-13 -5 -14 -9 -5 -9 8 0 24 4 35 9 13 5 14 9 5 9 -8 0
-24 -4 -35 -9z"/>
<path d="M3123 2823 c9 -2 25 -2 35 0 9 3 1 5 -18 5 -19 0 -27 -2 -17 -5z"/>
<path d="M3218 2783 c7 -3 16 -2 19 1 4 3 -2 6 -13 5 -11 0 -14 -3 -6 -6z"/>
<path d="M2943 2773 c9 -2 25 -2 35 0 9 3 1 5 -18 5 -19 0 -27 -2 -17 -5z"/>
<path d="M3163 2773 c9 -2 23 -2 30 0 6 3 -1 5 -18 5 -16 0 -22 -2 -12 -5z"/>
<path d="M3058 2763 c12 -2 32 -2 45 0 12 2 2 4 -23 4 -25 0 -35 -2 -22 -4z"/>
<path d="M2908 2733 c7 -3 16 -2 19 1 4 3 -2 6 -13 5 -11 0 -14 -3 -6 -6z"/>
<path d="M2953 2723 c9 -2 23 -2 30 0 6 3 -1 5 -18 5 -16 0 -22 -2 -12 -5z"/>
<path d="M3208 2723 c6 -2 18 -2 25 0 6 3 1 5 -13 5 -14 0 -19 -2 -12 -5z"/>
<path d="M3028 2713 c12 -2 30 -2 40 0 9 3 -1 5 -23 4 -22 0 -30 -2 -17 -4z"/>
<path d="M3123 2713 c15 -2 37 -2 50 0 12 2 0 4 -28 4 -27 0 -38 -2 -22 -4z"/>
<path d="M3248 2673 c7 -3 16 -2 19 1 4 3 -2 6 -13 5 -11 0 -14 -3 -6 -6z"/>
<path d="M3003 2663 c9 -2 25 -2 35 0 9 3 1 5 -18 5 -19 0 -27 -2 -17 -5z"/>
<path d="M3193 2663 c9 -2 23 -2 30 0 6 3 -1 5 -18 5 -16 0 -22 -2 -12 -5z"/>
<path d="M1553 2575 c0 -33 2 -45 4 -27 2 18 2 45 0 60 -2 15 -4 0 -4 -33z"/>
<path d="M2948 2623 c7 -3 16 -2 19 1 4 3 -2 6 -13 5 -11 0 -14 -3 -6 -6z"/>
<path d="M2988 2613 c6 -2 18 -2 25 0 6 3 1 5 -13 5 -14 0 -19 -2 -12 -5z"/>
<path d="M2876 2595 c17 -7 44 -16 60 -20 25 -4 24 -3 -6 8 -19 8 -46 17 -60
20 -19 5 -17 3 6 -8z"/>
<path d="M3067 2603 c18 -2 50 -2 70 0 21 2 7 4 -32 4 -38 0 -55 -2 -38 -4z"/>
<path d="M3188 2603 c6 -2 18 -2 25 0 6 3 1 5 -13 5 -14 0 -19 -2 -12 -5z"/>
<path d="M2978 2563 c7 -3 16 -2 19 1 4 3 -2 6 -13 5 -11 0 -14 -3 -6 -6z"/>
<path d="M3023 2553 c9 -2 23 -2 30 0 6 3 -1 5 -18 5 -16 0 -22 -2 -12 -5z"/>
<path d="M3228 2553 c6 -2 18 -2 25 0 6 3 1 5 -13 5 -14 0 -19 -2 -12 -5z"/>
<path d="M3103 2543 c20 -2 54 -2 75 0 20 2 3 4 -38 4 -41 0 -58 -2 -37 -4z"/>
<path d="M2042 2495 c-7 -14 -12 -31 -12 -38 1 -7 7 3 16 22 17 39 13 54 -4
16z"/>
<path d="M2965 2510 c11 -5 29 -8 40 -8 16 0 15 2 -5 8 -34 11 -60 11 -35 0z"/>
<path d="M3235 2500 c-27 -7 -28 -8 -5 -8 14 0 34 3 45 8 25 11 2 11 -40 0z"/>
<path d="M3043 2493 c9 -2 23 -2 30 0 6 3 -1 5 -18 5 -16 0 -22 -2 -12 -5z"/>
<path d="M1692 2465 c0 -16 2 -22 5 -12 2 9 2 23 0 30 -3 6 -5 -1 -5 -18z"/>
<path d="M2890 2480 c8 -5 20 -10 25 -10 6 0 3 5 -5 10 -8 5 -19 10 -25 10 -5
0 -3 -5 5 -10z"/>
<path d="M3133 2483 c9 -2 25 -2 35 0 9 3 1 5 -18 5 -19 0 -27 -2 -17 -5z"/>
<path d="M1742 2445 c0 -16 2 -22 5 -12 2 9 2 23 0 30 -3 6 -5 -1 -5 -18z"/>
<path d="M1966 2448 c-3 -13 -5 -36 -5 -53 1 -21 4 -15 10 20 8 52 6 72 -5 33z"/>
<path d="M2968 2453 c7 -3 16 -2 19 1 4 3 -2 6 -13 5 -11 0 -14 -3 -6 -6z"/>
<path d="M3008 2443 c6 -2 18 -2 25 0 6 3 1 5 -13 5 -14 0 -19 -2 -12 -5z"/>
<path d="M2022 2420 c0 -14 2 -19 5 -12 2 6 2 18 0 25 -3 6 -5 1 -5 -13z"/>
<path d="M3063 2433 c9 -2 25 -2 35 0 9 3 1 5 -18 5 -19 0 -27 -2 -17 -5z"/>
<path d="M1903 2380 c0 -25 2 -35 4 -22 2 12 2 32 0 45 -2 12 -4 2 -4 -23z"/>
<path d="M2978 2393 c7 -3 16 -2 19 1 4 3 -2 6 -13 5 -11 0 -14 -3 -6 -6z"/>
<path d="M3018 2383 c6 -2 18 -2 25 0 6 3 1 5 -13 5 -14 0 -19 -2 -12 -5z"/>
<path d="M2880 2371 c19 -14 136 -51 159 -50 9 0 -18 10 -59 23 -41 13 -84 26
-95 30 -16 6 -17 6 -5 -3z"/>
<path d="M3068 2373 c6 -2 18 -2 25 0 6 3 1 5 -13 5 -14 0 -19 -2 -12 -5z"/>
<path d="M3138 2373 c7 -3 16 -2 19 1 4 3 -2 6 -13 5 -11 0 -14 -3 -6 -6z"/>
<path d="M3198 2373 c6 -2 18 -2 25 0 6 3 1 5 -13 5 -14 0 -19 -2 -12 -5z"/>
<path d="M3097 2313 c18 -2 50 -2 70 0 21 2 7 4 -32 4 -38 0 -55 -2 -38 -4z"/>
<path d="M660 1560 l0 -180 140 0 140 0 0 35 0 35 -95 0 -95 0 0 35 0 35 85 0
85 0 0 35 0 35 -86 0 -85 0 3 38 3 37 93 3 92 3 0 34 0 35 -140 0 -140 0 0
-180z"/>
<path d="M1007 1733 c-4 -3 -7 -84 -7 -180 l0 -173 45 0 44 0 3 106 3 105 78
-105 c77 -103 80 -106 118 -106 l39 0 0 180 0 180 -40 0 -39 0 -3 -110 -3
-111 -83 111 c-76 101 -85 110 -115 110 -19 0 -37 -3 -40 -7z"/>
<path d="M1479 1712 c-116 -60 -134 -203 -36 -289 56 -49 153 -57 240 -20 l37
16 0 70 0 71 -39 0 -40 0 -3 -47 c-3 -46 -5 -48 -39 -57 -102 -25 -170 108
-92 180 31 29 88 32 135 8 31 -16 32 -16 54 12 28 34 20 47 -43 68 -67 23
-113 20 -174 -12z"/>
<path d="M1896 1732 c-10 -17 -146 -336 -146 -344 0 -4 20 -8 44 -8 42 0 45 2
56 35 l12 35 78 0 78 0 12 -35 c11 -34 13 -35 60 -35 l49 0 -43 103 c-24 56
-58 137 -76 180 l-33 77 -43 0 c-23 0 -45 -4 -48 -8z m73 -158 c11 -31 21 -58
21 -60 0 -2 -22 -4 -50 -4 -27 0 -50 2 -50 4 0 14 44 116 50 116 4 0 17 -25
29 -56z"/>
<path d="M2249 1712 c-116 -60 -134 -203 -36 -289 56 -49 153 -57 240 -20 l37
16 0 70 0 71 -39 0 -40 0 -3 -47 c-3 -46 -5 -48 -39 -57 -102 -25 -170 108
-92 180 31 29 88 32 135 8 31 -16 32 -16 54 12 28 34 20 47 -43 68 -67 23
-113 20 -174 -12z"/>
<path d="M2550 1560 l0 -180 140 0 140 0 0 35 0 35 -95 0 -95 0 0 35 0 35 85
0 85 0 0 35 0 35 -86 0 -85 0 3 38 3 37 93 3 92 3 0 34 0 35 -140 0 -140 0 0
-180z"/>
<path d="M2897 1733 c-4 -3 -7 -84 -7 -180 l0 -173 40 0 40 0 0 112 c0 61 3
108 7 105 3 -4 23 -44 43 -90 35 -79 38 -82 70 -82 32 0 34 2 69 85 l36 85 2
-45 c2 -25 5 -73 9 -107 l6 -63 34 0 34 0 0 180 0 180 -45 0 -46 0 -51 -107
-50 -108 -18 40 c-10 22 -32 70 -48 108 l-31 67 -44 0 c-24 0 -47 -3 -50 -7z"/>
<path d="M3360 1560 l0 -180 140 0 140 0 0 35 0 35 -95 0 -95 0 0 35 0 35 85
0 85 0 0 35 0 35 -85 0 -85 0 0 40 0 40 96 0 95 0 -3 33 -3 32 -137 3 -138 3
0 -181z"/>
<path d="M3700 1560 l0 -180 45 0 45 0 0 107 0 106 80 -106 c79 -105 81 -107
120 -107 l40 0 0 180 0 180 -40 0 -39 0 -3 -112 -3 -112 -84 112 c-81 109 -84
112 -122 112 l-39 0 0 -180z"/>
<path d="M4070 1700 l0 -40 55 0 55 0 0 -140 0 -140 45 0 45 0 0 140 0 140 50
0 50 0 0 40 0 40 -150 0 -150 0 0 -40z"/>
<path d="M1501 1268 c-5 -13 -23 -53 -40 -90 -22 -50 -26 -68 -16 -68 7 0 17
9 20 20 5 17 15 20 61 20 40 0 54 -4 54 -14 0 -17 18 -31 27 -22 10 10 -69
176 -84 176 -7 0 -17 -10 -22 -22z m28 -86 c-17 -2 -33 -2 -35 1 -2 2 3 21 12
43 l17 39 18 -40 18 -40 -30 -3z"/>
<path d="M1750 1200 c0 -53 4 -90 10 -90 6 0 10 28 10 65 0 36 3 65 8 65 4 -1
28 -30 55 -65 26 -36 52 -65 57 -65 6 0 10 38 10 90 0 105 -18 123 -22 23 l-3
-68 -49 68 c-28 37 -56 67 -63 67 -10 0 -13 -23 -13 -90z"/>
<path d="M2075 1205 c-21 -47 -35 -88 -32 -91 9 -9 27 6 27 22 0 10 14 14 54
14 46 0 56 -3 61 -20 3 -11 13 -20 20 -20 11 0 10 9 -5 45 -11 25 -29 65 -40
90 -10 25 -25 45 -33 45 -8 0 -31 -38 -52 -85z m70 19 c8 -20 15 -38 15 -40 0
-2 -16 -4 -35 -4 -19 0 -35 2 -35 5 0 7 33 75 37 75 1 0 10 -16 18 -36z"/>
<path d="M2350 1200 l0 -90 55 0 c30 0 55 5 55 10 0 6 -18 10 -40 10 l-40 0 0
80 c0 64 -3 80 -15 80 -12 0 -15 -17 -15 -90z"/>
<path d="M2580 1283 c0 -3 14 -30 30 -60 17 -29 30 -66 30 -83 0 -16 5 -30 10
-30 6 0 10 12 10 28 0 15 16 55 34 90 20 37 29 62 22 62 -7 0 -24 -21 -38 -46
l-26 -47 -27 47 c-24 40 -45 59 -45 39z"/>
<path d="M2850 1280 c0 -5 25 -10 54 -12 l55 -3 -54 -65 c-30 -36 -55 -71 -55
-77 0 -9 22 -13 75 -13 43 0 75 4 75 10 0 6 -25 10 -55 10 -30 0 -55 3 -55 8
0 4 22 34 50 67 27 33 50 66 50 73 0 8 -21 12 -70 12 -38 0 -70 -4 -70 -10z"/>
<path d="M3140 1200 l0 -90 60 0 c71 0 81 18 13 22 -44 3 -48 5 -51 31 -3 26
-2 27 42 27 25 0 46 5 46 10 0 6 -20 10 -45 10 -43 0 -45 1 -45 30 0 29 1 30
50 30 28 0 50 5 50 10 0 6 -27 10 -60 10 l-60 0 0 -90z"/>
<path d="M3410 1200 c0 -49 4 -90 9 -90 5 0 11 12 13 28 2 21 9 28 31 30 22 3
31 -3 45 -27 9 -17 23 -31 30 -31 10 0 9 8 -4 30 -17 27 -17 30 -1 48 24 26
21 68 -5 86 -13 9 -43 16 -70 16 l-48 0 0 -90z m101 60 c21 -12 25 -40 7 -58
-7 -7 -29 -12 -50 -12 -36 0 -38 1 -38 33 0 19 3 37 7 40 10 10 52 8 74 -3z"/>
</g>
</svg>
